<svg width="30" height="30" viewBox="0 0 30 30" fill="none" xmlns="http://www.w3.org/2000/svg">
<mask id="mask0" mask-type="alpha" maskUnits="userSpaceOnUse" x="0" y="0" width="30" height="30">
<rect width="30" height="30" fill="#2E3035"/>
</mask>
<g mask="url(#mask0)">
<path fill-rule="evenodd" clip-rule="evenodd" d="M30 15L15 0L0 15L15 30L30 15ZM8.70704 17.4244H6.81641V16.1353H8.52442C8.50294 15.8453 8.49219 15.5445 8.49219 15.2437C8.49219 14.9215 8.50294 14.6099 8.53516 14.3092H6.81641V13.0201H8.71778C9.46973 9.59335 11.9941 7.47714 15.4209 7.47714C18.6973 7.47714 21.082 9.47519 21.5547 12.15H19.6211C19.1377 10.5172 17.5479 9.27108 15.4209 9.27108C13.165 9.27108 11.4248 10.6891 10.7481 13.0201H16.9785V14.3092H10.501C10.4795 14.6099 10.458 14.9215 10.458 15.2437C10.458 15.5553 10.4688 15.8453 10.501 16.1353H16.9785V17.4244H10.7373C11.3818 19.7984 13.1328 21.2271 15.4316 21.2271C17.6231 21.2271 19.0733 20.2066 19.6211 18.7135H21.5547C20.8672 21.356 18.751 23.0211 15.4209 23.0211C11.9512 23.0211 9.43751 20.9049 8.70704 17.4244Z" fill="#DD9323"/>
<mask id="mask1" mask-type="alpha" maskUnits="userSpaceOnUse" x="-1" y="0" width="32" height="17">
<path fill-rule="evenodd" clip-rule="evenodd" d="M7.57023 12.6624C5.49973 12.6326 3.03448 13.2189 -0.134324 15.113C-0.4022 14.7788 0.686451 13.8427 0.500213 13.5002C0.501271 13.0018 2.49966 11.7706 2.50023 11.5002C7.50022 8.00022 13.0002 0.5 15.0002 -1.82203e-06C17.9904 2.57878 23.2714 8.15761 29.0002 12.0005C29.0084 12.1942 28.997 12.2079 29.0002 12.501C28.9992 13.0011 29.5016 13.3546 29.5002 14.0005C28.7521 13.1784 30.6771 14.6632 30.6725 14.7459C27.3072 16.4892 24.4756 17.0419 21.9224 16.884C19.0758 16.7078 16.6969 15.6457 14.5447 14.6848C14.4626 14.6482 14.3809 14.6117 14.2995 14.5754C12.0295 13.5635 9.98554 12.6971 7.57023 12.6624Z" fill="#2E3035"/>
</mask>
<g mask="url(#mask1)">
<path fill-rule="evenodd" clip-rule="evenodd" d="M30 15L15 0L0 15L15 30L30 15ZM8.70742 17.4244H6.8168V16.1353H8.5248C8.50332 15.8453 8.49258 15.5445 8.49258 15.2437C8.49258 14.9215 8.50332 14.6099 8.53555 14.3092H6.8168V13.0201H8.71816C9.47012 9.59335 11.9945 7.47714 15.4213 7.47714C18.6977 7.47714 21.0824 9.47519 21.5551 12.15H19.6215C19.1381 10.5172 17.5482 9.27108 15.4213 9.27108C13.1654 9.27108 11.4252 10.6891 10.7484 13.0201H16.9789V14.3092H10.5014C10.4799 14.6099 10.4584 14.9215 10.4584 15.2437C10.4584 15.5553 10.4691 15.8453 10.5014 16.1353H16.9789V17.4244H10.7377C11.3822 19.7984 13.1332 21.2271 15.432 21.2271C17.6234 21.2271 19.0736 20.2066 19.6215 18.7135H21.5551C20.8676 21.356 18.7514 23.0211 15.4213 23.0211C11.9516 23.0211 9.43789 20.9049 8.70742 17.4244Z" fill="#F8D12E"/>
</g>
</g>
</svg>
